<svg xmlns="http://www.w3.org/2000/svg" viewBox="0 0 32 32">
  <defs>
    <linearGradient id="cardGradient32" x1="0%" y1="0%" x2="100%" y2="100%">
      <stop offset="0%" style="stop-color:#FF3864;stop-opacity:1" />
      <stop offset="50%" style="stop-color:#FF0054;stop-opacity:1" />
      <stop offset="100%" style="stop-color:#D6004C;stop-opacity:1" />
    </linearGradient>
    <clipPath id="innerClip32">
      <rect x="5" y="4" width="22" height="21" rx="2" ry="2"/>
    </clipPath>
  </defs>

  <!-- Trading card background -->
  <rect x="3" y="2" width="26" height="28" rx="3" ry="3" fill="url(#cardGradient32)"/>

  <!-- Inner card area -->
  <rect x="5" y="4" width="22" height="21" rx="2" ry="2" fill="#1E1E2E"/>

  <!-- Simplified player silhouette -->
  <g clip-path="url(#innerClip32)">
    <path d="M 5 25
             C 5 21, 10 19, 13 18
             C 13 17, 13 16, 13 15
             C 11 14, 10 12, 10 10
             C 10 7, 13 5, 16 5
             C 19 5, 22 7, 22 10
             C 22 12, 21 14, 19 15
             C 19 16, 19 17, 19 18
             C 22 19, 27 21, 27 25
             Z"
          fill="#2D2D44"/>
  </g>

  <!-- Card bottom stripe -->
  <rect x="5" y="26" width="22" height="2" rx="1" ry="1" fill="#0A0A0F"/>
</svg>
